G04 #@! TF.FileFunction,Legend,Bot*
%FSLAX46Y46*%
G04 Gerber Fmt 4.6, Leading zero omitted, Abs format (unit mm)*
G04 Created by KiCad (PCBNEW 4.0.7) date 12/11/17 00:30:20*
%MOMM*%
%LPD*%
G01*
G04 APERTURE LIST*
%ADD10C,0.100000*%
%ADD11C,0.125000*%
%ADD12C,0.150000*%
G04 APERTURE END LIST*
D10*
X163456952Y-117574190D02*
X163456952Y-117074190D01*
X163242667Y-117574190D02*
X163242667Y-117312286D01*
X163266476Y-117264667D01*
X163314095Y-117240857D01*
X163385524Y-117240857D01*
X163433143Y-117264667D01*
X163456952Y-117288476D01*
X163076000Y-117240857D02*
X162885524Y-117240857D01*
X163004571Y-117074190D02*
X163004571Y-117502762D01*
X162980762Y-117550381D01*
X162933143Y-117574190D01*
X162885524Y-117574190D01*
X162790286Y-117240857D02*
X162599810Y-117240857D01*
X162718857Y-117074190D02*
X162718857Y-117502762D01*
X162695048Y-117550381D01*
X162647429Y-117574190D01*
X162599810Y-117574190D01*
X162433143Y-117240857D02*
X162433143Y-117740857D01*
X162433143Y-117264667D02*
X162385524Y-117240857D01*
X162290286Y-117240857D01*
X162242667Y-117264667D01*
X162218858Y-117288476D01*
X162195048Y-117336095D01*
X162195048Y-117478952D01*
X162218858Y-117526571D01*
X162242667Y-117550381D01*
X162290286Y-117574190D01*
X162385524Y-117574190D01*
X162433143Y-117550381D01*
X162004572Y-117550381D02*
X161956953Y-117574190D01*
X161861715Y-117574190D01*
X161814096Y-117550381D01*
X161790286Y-117502762D01*
X161790286Y-117478952D01*
X161814096Y-117431333D01*
X161861715Y-117407524D01*
X161933143Y-117407524D01*
X161980762Y-117383714D01*
X162004572Y-117336095D01*
X162004572Y-117312286D01*
X161980762Y-117264667D01*
X161933143Y-117240857D01*
X161861715Y-117240857D01*
X161814096Y-117264667D01*
X161576000Y-117526571D02*
X161552191Y-117550381D01*
X161576000Y-117574190D01*
X161599810Y-117550381D01*
X161576000Y-117526571D01*
X161576000Y-117574190D01*
X161576000Y-117264667D02*
X161552191Y-117288476D01*
X161576000Y-117312286D01*
X161599810Y-117288476D01*
X161576000Y-117264667D01*
X161576000Y-117312286D01*
X160980763Y-117050381D02*
X161409334Y-117693238D01*
X160456953Y-117050381D02*
X160885524Y-117693238D01*
X160076000Y-117240857D02*
X160076000Y-117645619D01*
X160099809Y-117693238D01*
X160123619Y-117717048D01*
X160171238Y-117740857D01*
X160242666Y-117740857D01*
X160290285Y-117717048D01*
X160076000Y-117550381D02*
X160123619Y-117574190D01*
X160218857Y-117574190D01*
X160266476Y-117550381D01*
X160290285Y-117526571D01*
X160314095Y-117478952D01*
X160314095Y-117336095D01*
X160290285Y-117288476D01*
X160266476Y-117264667D01*
X160218857Y-117240857D01*
X160123619Y-117240857D01*
X160076000Y-117264667D01*
X159837904Y-117574190D02*
X159837904Y-117240857D01*
X159837904Y-117074190D02*
X159861714Y-117098000D01*
X159837904Y-117121810D01*
X159814095Y-117098000D01*
X159837904Y-117074190D01*
X159837904Y-117121810D01*
X159671238Y-117240857D02*
X159480762Y-117240857D01*
X159599809Y-117074190D02*
X159599809Y-117502762D01*
X159576000Y-117550381D01*
X159528381Y-117574190D01*
X159480762Y-117574190D01*
X159314095Y-117574190D02*
X159314095Y-117074190D01*
X159099810Y-117574190D02*
X159099810Y-117312286D01*
X159123619Y-117264667D01*
X159171238Y-117240857D01*
X159242667Y-117240857D01*
X159290286Y-117264667D01*
X159314095Y-117288476D01*
X158647429Y-117240857D02*
X158647429Y-117574190D01*
X158861714Y-117240857D02*
X158861714Y-117502762D01*
X158837905Y-117550381D01*
X158790286Y-117574190D01*
X158718857Y-117574190D01*
X158671238Y-117550381D01*
X158647429Y-117526571D01*
X158409333Y-117574190D02*
X158409333Y-117074190D01*
X158409333Y-117264667D02*
X158361714Y-117240857D01*
X158266476Y-117240857D01*
X158218857Y-117264667D01*
X158195048Y-117288476D01*
X158171238Y-117336095D01*
X158171238Y-117478952D01*
X158195048Y-117526571D01*
X158218857Y-117550381D01*
X158266476Y-117574190D01*
X158361714Y-117574190D01*
X158409333Y-117550381D01*
X157956952Y-117526571D02*
X157933143Y-117550381D01*
X157956952Y-117574190D01*
X157980762Y-117550381D01*
X157956952Y-117526571D01*
X157956952Y-117574190D01*
X157504572Y-117550381D02*
X157552191Y-117574190D01*
X157647429Y-117574190D01*
X157695048Y-117550381D01*
X157718857Y-117526571D01*
X157742667Y-117478952D01*
X157742667Y-117336095D01*
X157718857Y-117288476D01*
X157695048Y-117264667D01*
X157647429Y-117240857D01*
X157552191Y-117240857D01*
X157504572Y-117264667D01*
X157218858Y-117574190D02*
X157266477Y-117550381D01*
X157290286Y-117526571D01*
X157314096Y-117478952D01*
X157314096Y-117336095D01*
X157290286Y-117288476D01*
X157266477Y-117264667D01*
X157218858Y-117240857D01*
X157147429Y-117240857D01*
X157099810Y-117264667D01*
X157076001Y-117288476D01*
X157052191Y-117336095D01*
X157052191Y-117478952D01*
X157076001Y-117526571D01*
X157099810Y-117550381D01*
X157147429Y-117574190D01*
X157218858Y-117574190D01*
X156837905Y-117574190D02*
X156837905Y-117240857D01*
X156837905Y-117288476D02*
X156814096Y-117264667D01*
X156766477Y-117240857D01*
X156695048Y-117240857D01*
X156647429Y-117264667D01*
X156623620Y-117312286D01*
X156623620Y-117574190D01*
X156623620Y-117312286D02*
X156599810Y-117264667D01*
X156552191Y-117240857D01*
X156480763Y-117240857D01*
X156433143Y-117264667D01*
X156409334Y-117312286D01*
X156409334Y-117574190D01*
X155814096Y-117050381D02*
X156242667Y-117693238D01*
X155647428Y-117312286D02*
X155480762Y-117312286D01*
X155409333Y-117574190D02*
X155647428Y-117574190D01*
X155647428Y-117074190D01*
X155409333Y-117074190D01*
X155123619Y-117574190D02*
X155171238Y-117550381D01*
X155195047Y-117502762D01*
X155195047Y-117074190D01*
X154742666Y-117550381D02*
X154790285Y-117574190D01*
X154885523Y-117574190D01*
X154933142Y-117550381D01*
X154956952Y-117502762D01*
X154956952Y-117312286D01*
X154933142Y-117264667D01*
X154885523Y-117240857D01*
X154790285Y-117240857D01*
X154742666Y-117264667D01*
X154718857Y-117312286D01*
X154718857Y-117359905D01*
X154956952Y-117407524D01*
X154504571Y-117574190D02*
X154504571Y-117074190D01*
X154385524Y-117074190D01*
X154314095Y-117098000D01*
X154266476Y-117145619D01*
X154242667Y-117193238D01*
X154218857Y-117288476D01*
X154218857Y-117359905D01*
X154242667Y-117455143D01*
X154266476Y-117502762D01*
X154314095Y-117550381D01*
X154385524Y-117574190D01*
X154504571Y-117574190D01*
X153814095Y-117550381D02*
X153861714Y-117574190D01*
X153956952Y-117574190D01*
X154004571Y-117550381D01*
X154028381Y-117502762D01*
X154028381Y-117312286D01*
X154004571Y-117264667D01*
X153956952Y-117240857D01*
X153861714Y-117240857D01*
X153814095Y-117264667D01*
X153790286Y-117312286D01*
X153790286Y-117359905D01*
X154028381Y-117407524D01*
X153599810Y-117550381D02*
X153552191Y-117574190D01*
X153456953Y-117574190D01*
X153409334Y-117550381D01*
X153385524Y-117502762D01*
X153385524Y-117478952D01*
X153409334Y-117431333D01*
X153456953Y-117407524D01*
X153528381Y-117407524D01*
X153576000Y-117383714D01*
X153599810Y-117336095D01*
X153599810Y-117312286D01*
X153576000Y-117264667D01*
X153528381Y-117240857D01*
X153456953Y-117240857D01*
X153409334Y-117264667D01*
X152814096Y-117050381D02*
X153242667Y-117693238D01*
X152433143Y-117240857D02*
X152433143Y-117574190D01*
X152552190Y-117050381D02*
X152671238Y-117407524D01*
X152361714Y-117407524D01*
X152171238Y-117383714D02*
X151790286Y-117383714D01*
X151599809Y-117240857D02*
X151504571Y-117574190D01*
X151409333Y-117336095D01*
X151314095Y-117574190D01*
X151218857Y-117240857D01*
X151028380Y-117574190D02*
X151028380Y-117240857D01*
X151028380Y-117074190D02*
X151052190Y-117098000D01*
X151028380Y-117121810D01*
X151004571Y-117098000D01*
X151028380Y-117074190D01*
X151028380Y-117121810D01*
X150790285Y-117574190D02*
X150790285Y-117240857D01*
X150790285Y-117336095D02*
X150766476Y-117288476D01*
X150742666Y-117264667D01*
X150695047Y-117240857D01*
X150647428Y-117240857D01*
X150290285Y-117550381D02*
X150337904Y-117574190D01*
X150433142Y-117574190D01*
X150480761Y-117550381D01*
X150504571Y-117502762D01*
X150504571Y-117312286D01*
X150480761Y-117264667D01*
X150433142Y-117240857D01*
X150337904Y-117240857D01*
X150290285Y-117264667D01*
X150266476Y-117312286D01*
X150266476Y-117359905D01*
X150504571Y-117407524D01*
X150052190Y-117383714D02*
X149671238Y-117383714D01*
X149456952Y-117550381D02*
X149409333Y-117574190D01*
X149314095Y-117574190D01*
X149266476Y-117550381D01*
X149242666Y-117502762D01*
X149242666Y-117478952D01*
X149266476Y-117431333D01*
X149314095Y-117407524D01*
X149385523Y-117407524D01*
X149433142Y-117383714D01*
X149456952Y-117336095D01*
X149456952Y-117312286D01*
X149433142Y-117264667D01*
X149385523Y-117240857D01*
X149314095Y-117240857D01*
X149266476Y-117264667D01*
X149028380Y-117574190D02*
X149028380Y-117074190D01*
X148814095Y-117574190D02*
X148814095Y-117312286D01*
X148837904Y-117264667D01*
X148885523Y-117240857D01*
X148956952Y-117240857D01*
X149004571Y-117264667D01*
X149028380Y-117288476D01*
X148504571Y-117574190D02*
X148552190Y-117550381D01*
X148575999Y-117526571D01*
X148599809Y-117478952D01*
X148599809Y-117336095D01*
X148575999Y-117288476D01*
X148552190Y-117264667D01*
X148504571Y-117240857D01*
X148433142Y-117240857D01*
X148385523Y-117264667D01*
X148361714Y-117288476D01*
X148337904Y-117336095D01*
X148337904Y-117478952D01*
X148361714Y-117526571D01*
X148385523Y-117550381D01*
X148433142Y-117574190D01*
X148504571Y-117574190D01*
X148123618Y-117574190D02*
X148123618Y-117240857D01*
X148123618Y-117336095D02*
X148099809Y-117288476D01*
X148075999Y-117264667D01*
X148028380Y-117240857D01*
X147980761Y-117240857D01*
X147885523Y-117240857D02*
X147695047Y-117240857D01*
X147814094Y-117074190D02*
X147814094Y-117502762D01*
X147790285Y-117550381D01*
X147742666Y-117574190D01*
X147695047Y-117574190D01*
X163014535Y-126225300D02*
G75*
G03X163014535Y-126225300I-647575J0D01*
G01*
X160934400Y-126123700D02*
X160756600Y-126301500D01*
X162486885Y-126429271D02*
X162510695Y-126453081D01*
X162582123Y-126476890D01*
X162629742Y-126476890D01*
X162701171Y-126453081D01*
X162748790Y-126405462D01*
X162772599Y-126357843D01*
X162796409Y-126262605D01*
X162796409Y-126191176D01*
X162772599Y-126095938D01*
X162748790Y-126048319D01*
X162701171Y-126000700D01*
X162629742Y-125976890D01*
X162582123Y-125976890D01*
X162510695Y-126000700D01*
X162486885Y-126024510D01*
X161986885Y-126429271D02*
X162010695Y-126453081D01*
X162082123Y-126476890D01*
X162129742Y-126476890D01*
X162201171Y-126453081D01*
X162248790Y-126405462D01*
X162272599Y-126357843D01*
X162296409Y-126262605D01*
X162296409Y-126191176D01*
X162272599Y-126095938D01*
X162248790Y-126048319D01*
X162201171Y-126000700D01*
X162129742Y-125976890D01*
X162082123Y-125976890D01*
X162010695Y-126000700D01*
X161986885Y-126024510D01*
X160915457Y-125976890D02*
X160867838Y-125976890D01*
X160820219Y-126000700D01*
X160796410Y-126024510D01*
X160772600Y-126072129D01*
X160748791Y-126167367D01*
X160748791Y-126286414D01*
X160772600Y-126381652D01*
X160796410Y-126429271D01*
X160820219Y-126453081D01*
X160867838Y-126476890D01*
X160915457Y-126476890D01*
X160963076Y-126453081D01*
X160986886Y-126429271D01*
X161010695Y-126381652D01*
X161034505Y-126286414D01*
X161034505Y-126167367D01*
X161010695Y-126072129D01*
X160986886Y-126024510D01*
X160963076Y-126000700D01*
X160915457Y-125976890D01*
X161541335Y-126225300D02*
G75*
G03X161541335Y-126225300I-647575J0D01*
G01*
X159361238Y-125991571D02*
X159385048Y-126015381D01*
X159456476Y-126039190D01*
X159504095Y-126039190D01*
X159575524Y-126015381D01*
X159623143Y-125967762D01*
X159646952Y-125920143D01*
X159670762Y-125824905D01*
X159670762Y-125753476D01*
X159646952Y-125658238D01*
X159623143Y-125610619D01*
X159575524Y-125563000D01*
X159504095Y-125539190D01*
X159456476Y-125539190D01*
X159385048Y-125563000D01*
X159361238Y-125586810D01*
X158861238Y-125991571D02*
X158885048Y-126015381D01*
X158956476Y-126039190D01*
X159004095Y-126039190D01*
X159075524Y-126015381D01*
X159123143Y-125967762D01*
X159146952Y-125920143D01*
X159170762Y-125824905D01*
X159170762Y-125753476D01*
X159146952Y-125658238D01*
X159123143Y-125610619D01*
X159075524Y-125563000D01*
X159004095Y-125539190D01*
X158956476Y-125539190D01*
X158885048Y-125563000D01*
X158861238Y-125586810D01*
X158646952Y-125848714D02*
X158266000Y-125848714D01*
X158027904Y-126039190D02*
X158027904Y-125539190D01*
X157837428Y-125539190D01*
X157789809Y-125563000D01*
X157766000Y-125586810D01*
X157742190Y-125634429D01*
X157742190Y-125705857D01*
X157766000Y-125753476D01*
X157789809Y-125777286D01*
X157837428Y-125801095D01*
X158027904Y-125801095D01*
X157527904Y-126039190D02*
X157527904Y-125539190D01*
X157408857Y-125539190D01*
X157337428Y-125563000D01*
X157289809Y-125610619D01*
X157266000Y-125658238D01*
X157242190Y-125753476D01*
X157242190Y-125824905D01*
X157266000Y-125920143D01*
X157289809Y-125967762D01*
X157337428Y-126015381D01*
X157408857Y-126039190D01*
X157527904Y-126039190D01*
X156289810Y-125515381D02*
X156718381Y-126158238D01*
X155742190Y-126039190D02*
X155742190Y-125539190D01*
X155551714Y-125539190D01*
X155504095Y-125563000D01*
X155480286Y-125586810D01*
X155456476Y-125634429D01*
X155456476Y-125705857D01*
X155480286Y-125753476D01*
X155504095Y-125777286D01*
X155551714Y-125801095D01*
X155742190Y-125801095D01*
X155027905Y-125705857D02*
X155027905Y-126039190D01*
X155242190Y-125705857D02*
X155242190Y-125967762D01*
X155218381Y-126015381D01*
X155170762Y-126039190D01*
X155099333Y-126039190D01*
X155051714Y-126015381D01*
X155027905Y-125991571D01*
X154789809Y-126039190D02*
X154789809Y-125539190D01*
X154789809Y-125729667D02*
X154742190Y-125705857D01*
X154646952Y-125705857D01*
X154599333Y-125729667D01*
X154575524Y-125753476D01*
X154551714Y-125801095D01*
X154551714Y-125943952D01*
X154575524Y-125991571D01*
X154599333Y-126015381D01*
X154646952Y-126039190D01*
X154742190Y-126039190D01*
X154789809Y-126015381D01*
X154266000Y-126039190D02*
X154313619Y-126015381D01*
X154337428Y-125967762D01*
X154337428Y-125539190D01*
X154075523Y-126039190D02*
X154075523Y-125705857D01*
X154075523Y-125539190D02*
X154099333Y-125563000D01*
X154075523Y-125586810D01*
X154051714Y-125563000D01*
X154075523Y-125539190D01*
X154075523Y-125586810D01*
X153623143Y-126015381D02*
X153670762Y-126039190D01*
X153766000Y-126039190D01*
X153813619Y-126015381D01*
X153837428Y-125991571D01*
X153861238Y-125943952D01*
X153861238Y-125801095D01*
X153837428Y-125753476D01*
X153813619Y-125729667D01*
X153766000Y-125705857D01*
X153670762Y-125705857D01*
X153623143Y-125729667D01*
X153027905Y-126039190D02*
X153027905Y-125539190D01*
X152908858Y-125539190D01*
X152837429Y-125563000D01*
X152789810Y-125610619D01*
X152766001Y-125658238D01*
X152742191Y-125753476D01*
X152742191Y-125824905D01*
X152766001Y-125920143D01*
X152789810Y-125967762D01*
X152837429Y-126015381D01*
X152908858Y-126039190D01*
X153027905Y-126039190D01*
X152456477Y-126039190D02*
X152504096Y-126015381D01*
X152527905Y-125991571D01*
X152551715Y-125943952D01*
X152551715Y-125801095D01*
X152527905Y-125753476D01*
X152504096Y-125729667D01*
X152456477Y-125705857D01*
X152385048Y-125705857D01*
X152337429Y-125729667D01*
X152313620Y-125753476D01*
X152289810Y-125801095D01*
X152289810Y-125943952D01*
X152313620Y-125991571D01*
X152337429Y-126015381D01*
X152385048Y-126039190D01*
X152456477Y-126039190D01*
X152075524Y-126039190D02*
X152075524Y-125705857D01*
X152075524Y-125753476D02*
X152051715Y-125729667D01*
X152004096Y-125705857D01*
X151932667Y-125705857D01*
X151885048Y-125729667D01*
X151861239Y-125777286D01*
X151861239Y-126039190D01*
X151861239Y-125777286D02*
X151837429Y-125729667D01*
X151789810Y-125705857D01*
X151718382Y-125705857D01*
X151670762Y-125729667D01*
X151646953Y-125777286D01*
X151646953Y-126039190D01*
X151194572Y-126039190D02*
X151194572Y-125777286D01*
X151218381Y-125729667D01*
X151266000Y-125705857D01*
X151361238Y-125705857D01*
X151408857Y-125729667D01*
X151194572Y-126015381D02*
X151242191Y-126039190D01*
X151361238Y-126039190D01*
X151408857Y-126015381D01*
X151432667Y-125967762D01*
X151432667Y-125920143D01*
X151408857Y-125872524D01*
X151361238Y-125848714D01*
X151242191Y-125848714D01*
X151194572Y-125824905D01*
X150956476Y-126039190D02*
X150956476Y-125705857D01*
X150956476Y-125539190D02*
X150980286Y-125563000D01*
X150956476Y-125586810D01*
X150932667Y-125563000D01*
X150956476Y-125539190D01*
X150956476Y-125586810D01*
X150718381Y-125705857D02*
X150718381Y-126039190D01*
X150718381Y-125753476D02*
X150694572Y-125729667D01*
X150646953Y-125705857D01*
X150575524Y-125705857D01*
X150527905Y-125729667D01*
X150504096Y-125777286D01*
X150504096Y-126039190D01*
X159646952Y-126889190D02*
X159646952Y-126389190D01*
X159432667Y-126889190D02*
X159432667Y-126627286D01*
X159456476Y-126579667D01*
X159504095Y-126555857D01*
X159575524Y-126555857D01*
X159623143Y-126579667D01*
X159646952Y-126603476D01*
X159266000Y-126555857D02*
X159075524Y-126555857D01*
X159194571Y-126389190D02*
X159194571Y-126817762D01*
X159170762Y-126865381D01*
X159123143Y-126889190D01*
X159075524Y-126889190D01*
X158980286Y-126555857D02*
X158789810Y-126555857D01*
X158908857Y-126389190D02*
X158908857Y-126817762D01*
X158885048Y-126865381D01*
X158837429Y-126889190D01*
X158789810Y-126889190D01*
X158623143Y-126555857D02*
X158623143Y-127055857D01*
X158623143Y-126579667D02*
X158575524Y-126555857D01*
X158480286Y-126555857D01*
X158432667Y-126579667D01*
X158408858Y-126603476D01*
X158385048Y-126651095D01*
X158385048Y-126793952D01*
X158408858Y-126841571D01*
X158432667Y-126865381D01*
X158480286Y-126889190D01*
X158575524Y-126889190D01*
X158623143Y-126865381D01*
X158194572Y-126865381D02*
X158146953Y-126889190D01*
X158051715Y-126889190D01*
X158004096Y-126865381D01*
X157980286Y-126817762D01*
X157980286Y-126793952D01*
X158004096Y-126746333D01*
X158051715Y-126722524D01*
X158123143Y-126722524D01*
X158170762Y-126698714D01*
X158194572Y-126651095D01*
X158194572Y-126627286D01*
X158170762Y-126579667D01*
X158123143Y-126555857D01*
X158051715Y-126555857D01*
X158004096Y-126579667D01*
X157766000Y-126841571D02*
X157742191Y-126865381D01*
X157766000Y-126889190D01*
X157789810Y-126865381D01*
X157766000Y-126841571D01*
X157766000Y-126889190D01*
X157766000Y-126579667D02*
X157742191Y-126603476D01*
X157766000Y-126627286D01*
X157789810Y-126603476D01*
X157766000Y-126579667D01*
X157766000Y-126627286D01*
X157170763Y-126365381D02*
X157599334Y-127008238D01*
X156646953Y-126365381D02*
X157075524Y-127008238D01*
X156266000Y-126865381D02*
X156313619Y-126889190D01*
X156408857Y-126889190D01*
X156456476Y-126865381D01*
X156480285Y-126841571D01*
X156504095Y-126793952D01*
X156504095Y-126651095D01*
X156480285Y-126603476D01*
X156456476Y-126579667D01*
X156408857Y-126555857D01*
X156313619Y-126555857D01*
X156266000Y-126579667D01*
X156051714Y-126889190D02*
X156051714Y-126555857D01*
X156051714Y-126651095D02*
X156027905Y-126603476D01*
X156004095Y-126579667D01*
X155956476Y-126555857D01*
X155908857Y-126555857D01*
X155551714Y-126865381D02*
X155599333Y-126889190D01*
X155694571Y-126889190D01*
X155742190Y-126865381D01*
X155766000Y-126817762D01*
X155766000Y-126627286D01*
X155742190Y-126579667D01*
X155694571Y-126555857D01*
X155599333Y-126555857D01*
X155551714Y-126579667D01*
X155527905Y-126627286D01*
X155527905Y-126674905D01*
X155766000Y-126722524D01*
X155099334Y-126889190D02*
X155099334Y-126627286D01*
X155123143Y-126579667D01*
X155170762Y-126555857D01*
X155266000Y-126555857D01*
X155313619Y-126579667D01*
X155099334Y-126865381D02*
X155146953Y-126889190D01*
X155266000Y-126889190D01*
X155313619Y-126865381D01*
X155337429Y-126817762D01*
X155337429Y-126770143D01*
X155313619Y-126722524D01*
X155266000Y-126698714D01*
X155146953Y-126698714D01*
X155099334Y-126674905D01*
X154932667Y-126555857D02*
X154742191Y-126555857D01*
X154861238Y-126389190D02*
X154861238Y-126817762D01*
X154837429Y-126865381D01*
X154789810Y-126889190D01*
X154742191Y-126889190D01*
X154575524Y-126889190D02*
X154575524Y-126555857D01*
X154575524Y-126389190D02*
X154599334Y-126413000D01*
X154575524Y-126436810D01*
X154551715Y-126413000D01*
X154575524Y-126389190D01*
X154575524Y-126436810D01*
X154385048Y-126555857D02*
X154266001Y-126889190D01*
X154146953Y-126555857D01*
X153766001Y-126865381D02*
X153813620Y-126889190D01*
X153908858Y-126889190D01*
X153956477Y-126865381D01*
X153980287Y-126817762D01*
X153980287Y-126627286D01*
X153956477Y-126579667D01*
X153908858Y-126555857D01*
X153813620Y-126555857D01*
X153766001Y-126579667D01*
X153742192Y-126627286D01*
X153742192Y-126674905D01*
X153980287Y-126722524D01*
X153313621Y-126865381D02*
X153361240Y-126889190D01*
X153456478Y-126889190D01*
X153504097Y-126865381D01*
X153527906Y-126841571D01*
X153551716Y-126793952D01*
X153551716Y-126651095D01*
X153527906Y-126603476D01*
X153504097Y-126579667D01*
X153456478Y-126555857D01*
X153361240Y-126555857D01*
X153313621Y-126579667D01*
X153027907Y-126889190D02*
X153075526Y-126865381D01*
X153099335Y-126841571D01*
X153123145Y-126793952D01*
X153123145Y-126651095D01*
X153099335Y-126603476D01*
X153075526Y-126579667D01*
X153027907Y-126555857D01*
X152956478Y-126555857D01*
X152908859Y-126579667D01*
X152885050Y-126603476D01*
X152861240Y-126651095D01*
X152861240Y-126793952D01*
X152885050Y-126841571D01*
X152908859Y-126865381D01*
X152956478Y-126889190D01*
X153027907Y-126889190D01*
X152646954Y-126889190D02*
X152646954Y-126555857D01*
X152646954Y-126603476D02*
X152623145Y-126579667D01*
X152575526Y-126555857D01*
X152504097Y-126555857D01*
X152456478Y-126579667D01*
X152432669Y-126627286D01*
X152432669Y-126889190D01*
X152432669Y-126627286D02*
X152408859Y-126579667D01*
X152361240Y-126555857D01*
X152289812Y-126555857D01*
X152242192Y-126579667D01*
X152218383Y-126627286D01*
X152218383Y-126889190D01*
X151980287Y-126889190D02*
X151980287Y-126555857D01*
X151980287Y-126603476D02*
X151956478Y-126579667D01*
X151908859Y-126555857D01*
X151837430Y-126555857D01*
X151789811Y-126579667D01*
X151766002Y-126627286D01*
X151766002Y-126889190D01*
X151766002Y-126627286D02*
X151742192Y-126579667D01*
X151694573Y-126555857D01*
X151623145Y-126555857D01*
X151575525Y-126579667D01*
X151551716Y-126627286D01*
X151551716Y-126889190D01*
X151242192Y-126889190D02*
X151289811Y-126865381D01*
X151313620Y-126841571D01*
X151337430Y-126793952D01*
X151337430Y-126651095D01*
X151313620Y-126603476D01*
X151289811Y-126579667D01*
X151242192Y-126555857D01*
X151170763Y-126555857D01*
X151123144Y-126579667D01*
X151099335Y-126603476D01*
X151075525Y-126651095D01*
X151075525Y-126793952D01*
X151099335Y-126841571D01*
X151123144Y-126865381D01*
X151170763Y-126889190D01*
X151242192Y-126889190D01*
X150861239Y-126555857D02*
X150861239Y-126889190D01*
X150861239Y-126603476D02*
X150837430Y-126579667D01*
X150789811Y-126555857D01*
X150718382Y-126555857D01*
X150670763Y-126579667D01*
X150646954Y-126627286D01*
X150646954Y-126889190D01*
X150432668Y-126865381D02*
X150385049Y-126889190D01*
X150289811Y-126889190D01*
X150242192Y-126865381D01*
X150218382Y-126817762D01*
X150218382Y-126793952D01*
X150242192Y-126746333D01*
X150289811Y-126722524D01*
X150361239Y-126722524D01*
X150408858Y-126698714D01*
X150432668Y-126651095D01*
X150432668Y-126627286D01*
X150408858Y-126579667D01*
X150361239Y-126555857D01*
X150289811Y-126555857D01*
X150242192Y-126579667D01*
X150004096Y-126841571D02*
X149980287Y-126865381D01*
X150004096Y-126889190D01*
X150027906Y-126865381D01*
X150004096Y-126841571D01*
X150004096Y-126889190D01*
X149694573Y-126889190D02*
X149742192Y-126865381D01*
X149766001Y-126841571D01*
X149789811Y-126793952D01*
X149789811Y-126651095D01*
X149766001Y-126603476D01*
X149742192Y-126579667D01*
X149694573Y-126555857D01*
X149623144Y-126555857D01*
X149575525Y-126579667D01*
X149551716Y-126603476D01*
X149527906Y-126651095D01*
X149527906Y-126793952D01*
X149551716Y-126841571D01*
X149575525Y-126865381D01*
X149623144Y-126889190D01*
X149694573Y-126889190D01*
X149313620Y-126889190D02*
X149313620Y-126555857D01*
X149313620Y-126651095D02*
X149289811Y-126603476D01*
X149266001Y-126579667D01*
X149218382Y-126555857D01*
X149170763Y-126555857D01*
X148789811Y-126555857D02*
X148789811Y-126960619D01*
X148813620Y-127008238D01*
X148837430Y-127032048D01*
X148885049Y-127055857D01*
X148956477Y-127055857D01*
X149004096Y-127032048D01*
X148789811Y-126865381D02*
X148837430Y-126889190D01*
X148932668Y-126889190D01*
X148980287Y-126865381D01*
X149004096Y-126841571D01*
X149027906Y-126793952D01*
X149027906Y-126651095D01*
X149004096Y-126603476D01*
X148980287Y-126579667D01*
X148932668Y-126555857D01*
X148837430Y-126555857D01*
X148789811Y-126579667D01*
D11*
X160313096Y-113574881D02*
X159694048Y-113574881D01*
X160027382Y-113955833D01*
X159884524Y-113955833D01*
X159789286Y-114003452D01*
X159741667Y-114051071D01*
X159694048Y-114146310D01*
X159694048Y-114384405D01*
X159741667Y-114479643D01*
X159789286Y-114527262D01*
X159884524Y-114574881D01*
X160170239Y-114574881D01*
X160265477Y-114527262D01*
X160313096Y-114479643D01*
X158551191Y-113527262D02*
X159408334Y-114812976D01*
X157789286Y-113908214D02*
X157789286Y-114574881D01*
X158027382Y-113527262D02*
X158265477Y-114241548D01*
X157646429Y-114241548D01*
X157313096Y-113574881D02*
X157313096Y-113765357D01*
X156932143Y-113574881D02*
X156932143Y-113765357D01*
X155836905Y-114574881D02*
X155313095Y-113908214D01*
X155836905Y-113908214D02*
X155313095Y-114574881D01*
X154265476Y-113574881D02*
X153646428Y-113574881D01*
X153979762Y-113955833D01*
X153836904Y-113955833D01*
X153741666Y-114003452D01*
X153694047Y-114051071D01*
X153646428Y-114146310D01*
X153646428Y-114384405D01*
X153694047Y-114479643D01*
X153741666Y-114527262D01*
X153836904Y-114574881D01*
X154122619Y-114574881D01*
X154217857Y-114527262D01*
X154265476Y-114479643D01*
X152503571Y-113527262D02*
X153360714Y-114812976D01*
X151741666Y-113908214D02*
X151741666Y-114574881D01*
X151979762Y-113527262D02*
X152217857Y-114241548D01*
X151598809Y-114241548D01*
X151265476Y-113574881D02*
X151265476Y-113765357D01*
X150884523Y-113574881D02*
X150884523Y-113765357D01*
X162932142Y-116199881D02*
X163503571Y-116199881D01*
X163217857Y-116199881D02*
X163217857Y-115199881D01*
X163313095Y-115342738D01*
X163408333Y-115437976D01*
X163503571Y-115485595D01*
X162455952Y-116199881D02*
X162265476Y-116199881D01*
X162170237Y-116152262D01*
X162122618Y-116104643D01*
X162027380Y-115961786D01*
X161979761Y-115771310D01*
X161979761Y-115390357D01*
X162027380Y-115295119D01*
X162074999Y-115247500D01*
X162170237Y-115199881D01*
X162360714Y-115199881D01*
X162455952Y-115247500D01*
X162503571Y-115295119D01*
X162551190Y-115390357D01*
X162551190Y-115628452D01*
X162503571Y-115723690D01*
X162455952Y-115771310D01*
X162360714Y-115818929D01*
X162170237Y-115818929D01*
X162074999Y-115771310D01*
X162027380Y-115723690D01*
X161979761Y-115628452D01*
X161503571Y-116152262D02*
X161503571Y-116199881D01*
X161551190Y-116295119D01*
X161598809Y-116342738D01*
X160884524Y-115199881D02*
X160789285Y-115199881D01*
X160694047Y-115247500D01*
X160646428Y-115295119D01*
X160598809Y-115390357D01*
X160551190Y-115580833D01*
X160551190Y-115818929D01*
X160598809Y-116009405D01*
X160646428Y-116104643D01*
X160694047Y-116152262D01*
X160789285Y-116199881D01*
X160884524Y-116199881D01*
X160979762Y-116152262D01*
X161027381Y-116104643D01*
X161075000Y-116009405D01*
X161122619Y-115818929D01*
X161122619Y-115580833D01*
X161075000Y-115390357D01*
X161027381Y-115295119D01*
X160979762Y-115247500D01*
X160884524Y-115199881D01*
X159646428Y-115199881D02*
X160122619Y-115199881D01*
X160170238Y-115676071D01*
X160122619Y-115628452D01*
X160027381Y-115580833D01*
X159789285Y-115580833D01*
X159694047Y-115628452D01*
X159646428Y-115676071D01*
X159598809Y-115771310D01*
X159598809Y-116009405D01*
X159646428Y-116104643D01*
X159694047Y-116152262D01*
X159789285Y-116199881D01*
X160027381Y-116199881D01*
X160122619Y-116152262D01*
X160170238Y-116104643D01*
X159170238Y-116199881D02*
X159170238Y-115533214D01*
X159170238Y-115628452D02*
X159122619Y-115580833D01*
X159027381Y-115533214D01*
X158884523Y-115533214D01*
X158789285Y-115580833D01*
X158741666Y-115676071D01*
X158741666Y-116199881D01*
X158741666Y-115676071D02*
X158694047Y-115580833D01*
X158598809Y-115533214D01*
X158455952Y-115533214D01*
X158360714Y-115580833D01*
X158313095Y-115676071D01*
X158313095Y-116199881D01*
X157836905Y-116199881D02*
X157836905Y-115533214D01*
X157836905Y-115628452D02*
X157789286Y-115580833D01*
X157694048Y-115533214D01*
X157551190Y-115533214D01*
X157455952Y-115580833D01*
X157408333Y-115676071D01*
X157408333Y-116199881D01*
X157408333Y-115676071D02*
X157360714Y-115580833D01*
X157265476Y-115533214D01*
X157122619Y-115533214D01*
X157027381Y-115580833D01*
X156979762Y-115676071D01*
X156979762Y-116199881D01*
X155836905Y-116199881D02*
X155313095Y-115533214D01*
X155836905Y-115533214D02*
X155313095Y-116199881D01*
X153646428Y-116199881D02*
X154217857Y-116199881D01*
X153932143Y-116199881D02*
X153932143Y-115199881D01*
X154027381Y-115342738D01*
X154122619Y-115437976D01*
X154217857Y-115485595D01*
X153170238Y-116199881D02*
X152979762Y-116199881D01*
X152884523Y-116152262D01*
X152836904Y-116104643D01*
X152741666Y-115961786D01*
X152694047Y-115771310D01*
X152694047Y-115390357D01*
X152741666Y-115295119D01*
X152789285Y-115247500D01*
X152884523Y-115199881D01*
X153075000Y-115199881D01*
X153170238Y-115247500D01*
X153217857Y-115295119D01*
X153265476Y-115390357D01*
X153265476Y-115628452D01*
X153217857Y-115723690D01*
X153170238Y-115771310D01*
X153075000Y-115818929D01*
X152884523Y-115818929D01*
X152789285Y-115771310D01*
X152741666Y-115723690D01*
X152694047Y-115628452D01*
X152217857Y-116152262D02*
X152217857Y-116199881D01*
X152265476Y-116295119D01*
X152313095Y-116342738D01*
X151598810Y-115199881D02*
X151503571Y-115199881D01*
X151408333Y-115247500D01*
X151360714Y-115295119D01*
X151313095Y-115390357D01*
X151265476Y-115580833D01*
X151265476Y-115818929D01*
X151313095Y-116009405D01*
X151360714Y-116104643D01*
X151408333Y-116152262D01*
X151503571Y-116199881D01*
X151598810Y-116199881D01*
X151694048Y-116152262D01*
X151741667Y-116104643D01*
X151789286Y-116009405D01*
X151836905Y-115818929D01*
X151836905Y-115580833D01*
X151789286Y-115390357D01*
X151741667Y-115295119D01*
X151694048Y-115247500D01*
X151598810Y-115199881D01*
X150360714Y-115199881D02*
X150836905Y-115199881D01*
X150884524Y-115676071D01*
X150836905Y-115628452D01*
X150741667Y-115580833D01*
X150503571Y-115580833D01*
X150408333Y-115628452D01*
X150360714Y-115676071D01*
X150313095Y-115771310D01*
X150313095Y-116009405D01*
X150360714Y-116104643D01*
X150408333Y-116152262D01*
X150503571Y-116199881D01*
X150741667Y-116199881D01*
X150836905Y-116152262D01*
X150884524Y-116104643D01*
X149884524Y-116199881D02*
X149884524Y-115533214D01*
X149884524Y-115628452D02*
X149836905Y-115580833D01*
X149741667Y-115533214D01*
X149598809Y-115533214D01*
X149503571Y-115580833D01*
X149455952Y-115676071D01*
X149455952Y-116199881D01*
X149455952Y-115676071D02*
X149408333Y-115580833D01*
X149313095Y-115533214D01*
X149170238Y-115533214D01*
X149075000Y-115580833D01*
X149027381Y-115676071D01*
X149027381Y-116199881D01*
X148551191Y-116199881D02*
X148551191Y-115533214D01*
X148551191Y-115628452D02*
X148503572Y-115580833D01*
X148408334Y-115533214D01*
X148265476Y-115533214D01*
X148170238Y-115580833D01*
X148122619Y-115676071D01*
X148122619Y-116199881D01*
X148122619Y-115676071D02*
X148075000Y-115580833D01*
X147979762Y-115533214D01*
X147836905Y-115533214D01*
X147741667Y-115580833D01*
X147694048Y-115676071D01*
X147694048Y-116199881D01*
D12*
X156955952Y-129230381D02*
X157289286Y-128754190D01*
X157527381Y-129230381D02*
X157527381Y-128230381D01*
X157146428Y-128230381D01*
X157051190Y-128278000D01*
X157003571Y-128325619D01*
X156955952Y-128420857D01*
X156955952Y-128563714D01*
X157003571Y-128658952D01*
X157051190Y-128706571D01*
X157146428Y-128754190D01*
X157527381Y-128754190D01*
X156527381Y-128706571D02*
X156194047Y-128706571D01*
X156051190Y-129230381D02*
X156527381Y-129230381D01*
X156527381Y-128230381D01*
X156051190Y-128230381D01*
X155765476Y-128230381D02*
X155432143Y-129230381D01*
X155098809Y-128230381D01*
X154051190Y-128944667D02*
X153574999Y-128944667D01*
X154146428Y-129230381D02*
X153813095Y-128230381D01*
X153479761Y-129230381D01*
M02*
